<svg width="128" height="128" viewBox="0 0 128 128" fill="none" xmlns="http://www.w3.org/2000/svg">
  <rect width="128" height="128" rx="28" fill="#17120E"/>
  <path d="M64 16L79.6 43H48.4L64 16Z" fill="#FF6A1C"/>
  <path d="M112 64L85 79.6V48.4L112 64Z" fill="#FF6A1C"/>
  <path d="M64 112L48.4 85H79.6L64 112Z" fill="#FF6A1C"/>
  <path d="M16 64L43 48.4V79.6L16 64Z" fill="#FF6A1C"/>
  <path d="M30.1 30.1L60.2 45.2L45.2 60.2L30.1 30.1Z" fill="#FF6A1C"/>
  <path d="M97.9 30.1L82.8 60.2L67.8 45.2L97.9 30.1Z" fill="#FF6A1C"/>
  <path d="M97.9 97.9L67.8 82.8L82.8 67.8L97.9 97.9Z" fill="#FF6A1C"/>
  <path d="M30.1 97.9L45.2 67.8L60.2 82.8L30.1 97.9Z" fill="#FF6A1C"/>
</svg>
